<?xml version="1.0" encoding="utf-8"?>
<svg version="1.1" xmlns:xlink="http://www.w3.org/1999/xlink" width="85px" height="85px" xmlns="http://www.w3.org/2000/svg">
  <g transform="matrix(1 0 0 1 -135 -221 )">
    <path d="M 15.454545454545455 61.81818181818182  L 23.18181818181818 61.81818181818182  L 23.18181818181818 69.54545454545455  L 15.454545454545455 69.54545454545455  L 15.454545454545455 61.81818181818182  Z M 15.454545454545455 15.45454545454545  L 23.18181818181818 15.45454545454545  L 23.18181818181818 23.18181818181818  L 15.454545454545455 23.18181818181818  L 15.454545454545455 15.45454545454545  Z M 61.81818181818182 15.45454545454545  L 69.54545454545455 15.45454545454545  L 69.54545454545455 23.18181818181818  L 61.81818181818182 23.18181818181818  L 61.81818181818182 15.45454545454545  Z M 8 54  L 8 77  L 31 77  L 31 54  L 8 54  Z M 8 8  L 8 31  L 31 31  L 31 8  L 8 8  Z M 54 8  L 54 31  L 77 31  L 77 8  L 54 8  Z M 0 46  L 39 46  L 39 85  L 0 85  L 0 46  Z M 61.81818181818182 77.27272727272727  L 69.54545454545455 77.27272727272727  L 69.54545454545455 85  L 61.81818181818182 85  L 61.81818181818182 77.27272727272727  Z M 77.27272727272727 77.27272727272727  L 85 77.27272727272727  L 85 85  L 77.27272727272727 85  L 77.27272727272727 77.27272727272727  Z M 77.27272727272727 46.36363636363636  L 85 46.36363636363636  L 85 69  L 61.81818181818182 69  L 61.81818181818182 61.81818181818182  L 54 61.81818181818182  L 54 85  L 46 85  L 46 46  L 69.54545454545455 46  L 69.54545454545455 54.09090909090909  L 77.27272727272727 54.09090909090909  L 77.27272727272727 46.36363636363636  Z M 0 0  L 39 0  L 39 39  L 0 39  L 0 0  Z M 46 0  L 85 0  L 85 39  L 46 39  L 46 0  Z " fill-rule="nonzero" fill="#000000" stroke="none" transform="matrix(1 0 0 1 135 221 )" />
  </g>
</svg>