<?xml version="1.0" encoding="utf-8"?>
<svg version="1.1" xmlns:xlink="http://www.w3.org/1999/xlink" width="20px" height="11px" xmlns="http://www.w3.org/2000/svg">
  <g transform="matrix(1 0 0 1 -1073 -485 )">
    <path d="M 0.7128712871287131 2.6172413793103457  C 3.0891089108910896 0.1896551724137931  7.207920792079207 0.1896551724137931  9.584158415841584 2.6172413793103444  C 12.435643564356436 5.196551724137931  16.87128712871287 5.196551724137931  19.722772277227723 2.6172413793103444  L 19.08910891089109 2.0103448275862057  C 16.554455445544555 4.437931034482757  12.594059405940591 4.437931034482757  10.059405940594054 2.0103448275862057  C 7.3663366336633676 -0.5689655172413793  2.930693069306931 -0.5689655172413793  0.07920792079207928 2.0103448275862075  L 0.7128712871287131 2.6172413793103457  Z M 19.247524752475243 8.382758620689657  C 16.712871287128714 10.810344827586206  12.594059405940591 10.810344827586206  10.217821782178216 8.382758620689657  C 7.366336633663365 5.8034482758620705  2.9306930693069297 5.8034482758620705  0.07920792079207753 8.382758620689657  L 0.7128712871287111 8.989655172413794  C 3.247524752475246 6.562068965517243  7.207920792079206 6.562068965517243  9.74257425742574 8.989655172413794  C 12.594059405940591 11.720689655172416  17.029702970297027 11.568965517241379  19.881188118811878 8.989655172413794  L 19.247524752475243 8.382758620689657  Z " fill-rule="nonzero" fill="#000000" stroke="none" transform="matrix(1 0 0 1 1073 485 )" />
  </g>
</svg>