<?xml version="1.0" encoding="utf-8"?>
<svg version="1.1" xmlns:xlink="http://www.w3.org/1999/xlink" width="30px" height="33px" xmlns="http://www.w3.org/2000/svg">
  <g transform="matrix(1 0 0 1 -194 -592 )">
    <path d="M 0.482648784082536 6.030965227118642  L 0.482648784082536 0.3942405220338952  L 4.209223139277816 0.3942405220338952  L 4.209223139277816 6.030965227118642  L 0.482648784082536 6.030965227118642  Z M 1 32.54660714576272  L 1 13.755957749152541  L 4.209223139277816 13.755957749152541  L 4.209223139277816 32.54660714576272  L 1 32.54660714576272  Z M 26 32.54660714576272  L 26 13.755957749152541  L 29.790748194546786 13.755957749152541  L 29.790748194546786 32.54660714576272  L 26 32.54660714576272  Z M 26.064173913043472 6.448430738983045  L 26.064173913043472 0.3942405220338952  L 29.790748194546786 0.3942405220338952  L 29.790748194546786 6.448430738983045  L 26.064173913043472 6.448430738983045  Z M 13.274340456890197 12.712293932203382  L 13.274340456890197 0.3942405220338952  L 17 0.3942405220338952  L 17 12.712293932203382  L 13.274340456890197 12.712293932203382  Z M 13.274340456890197 32.54660714576272  L 13.274340456890197 17.305354894915254  L 17 17.305354894915254  L 17 32.54660714576272  L 13.274340456890197 32.54660714576272  Z " fill-rule="nonzero" fill="#ffffff" stroke="none" transform="matrix(1 0 0 1 194 592 )" />
  </g>
</svg>