<?xml version="1.0" encoding="utf-8"?>
<svg version="1.1" xmlns:xlink="http://www.w3.org/1999/xlink" width="35px" height="35px" xmlns="http://www.w3.org/2000/svg">
  <g transform="matrix(1 0 0 1 -148 -550 )">
    <path d="M 34.868597080979285 29.407064082444023  C 34.86554410822557 32.47383163644459  32.38046963026635 34.959319200722504  29.313702626072402 35  L 5.5558178279974895 35  C 2.4889009028117215 34.95932016678069  0.003561743660824672 32.473981007629796  0 29.407064082444027  L 0 5.65010265745972  C 0.003562709719006602 2.583335653265778  2.4890502739969254 0.0982611753065488  5.5558178279974895 0  L 29.313702626072402 0  C 32.38032025465168 0.09826212239479741  34.865543161137325 2.5834850288804456  34.868597080979285 5.65010265745972  L 34.868597080979285 29.407064082444023  Z M 29.313702626072402 4  L 5.5558178279974895 4  C 4.535428555909972 3.799787148760042  3.7076355018326064 4.625104264419015  4 5.645485938480854  L 4 29.407064082444027  C 3.7045886836182493 30.429609959677865  4.5332719507636545 31.258293226823263  5.5558178279974895 31  L 29.313702626072402 31  C 30.335887856646018 31.257784476434534  31.164009316120268 30.429249947250586  31 29.407064082444027  L 31 5.65010265745972  C 31.160963527481655 4.630080802307498  30.333731445738934 3.804911621917426  29.313702626072402 4  Z " fill-rule="nonzero" fill="#ffffff" stroke="none" transform="matrix(1 0 0 1 148 550 )" />
  </g>
</svg>