<?xml version="1.0" encoding="utf-8"?>
<svg version="1.1" xmlns:xlink="http://www.w3.org/1999/xlink" width="37px" height="35px" xmlns="http://www.w3.org/2000/svg">
  <g transform="matrix(1 0 0 1 -191 -550 )">
    <path d="M 35.75102602905569 29.40706408244403  C 35.74739523118103 32.473981007629796  33.21387092506699 34.9593201667807  30.087493365617433 35  L 5.868996515334961 35  C 2.742618955885377 34.9593201667807  0.20909464977135198 32.473981007629796  0.2054638518966908 29.407064082444027  L 0.2054638518966908 5.65010265745972  C 0.2090956345592233 2.5833356532657787  2.7427712230425367 0.09826117530655054  5.86899651533495 0  L 30.087493365617426 0  C 33.21371865790982 0.09826117530655601  35.74739424639314 2.5833356532657823  35.75102602905569 5.65010265745972  L 35.75102602905569 29.40706408244403  Z M 30.087493365617426 4  L 5.868996515334941 4  C 4.82882421506879 3.7997871890375987  3.9849821573469346 4.625104292962  4 5.645485938480854  L 4 29.407064082444027  C 3.9818762682537288 30.429609931117252  4.826625798208057 31.25829318646087  5.86899651533495 31  L 30.087493365617426 31  C 31.12986408274431 31.25829318646087  31.974613612698636 30.429609931117266  32 29.407064082444027  L 32 5.65010265745972  C 31.971507682633806 4.629721040559202  31.12766563687402 3.804403981064859  30.087493365617426 4  Z " fill-rule="nonzero" fill="#ffffff" stroke="none" transform="matrix(1 0 0 1 191 550 )" />
  </g>
</svg>