<?xml version="1.0" encoding="utf-8"?>
<svg version="1.1" xmlns:xlink="http://www.w3.org/1999/xlink" width="35px" height="35px" xmlns="http://www.w3.org/2000/svg">
  <g transform="matrix(1 0 0 1 -148 -591 )">
    <path d="M 34.86859708097928 29.348973969449656  C 34.865543161137325 32.415591598028946  32.38032025465167 34.90081450451458  29.313702626072402 35  L 5.5558178279974895 35  C 2.4890502739969307 34.90081545160283  0.0035627097190076193 32.41574097364362  0 29.348973969449677  L 0 5.591089171374766  C 0.00356178400902555 2.524172274789854  2.4889009313656167 0.038833160195117435  5.5558178279974895 0  L 29.313702626072402 0  C 32.38046960170673 0.03883412625996727  34.86554406786792 2.5243216459740703  34.868597080979285 5.591089171374766  L 34.86859708097928 29.348973969449656  Z M 29.313702626072402 4  L 5.5558178279974895 4  C 4.533271979324262 3.7398601001639493  3.7045887239806414 4.568543322741787  4 5.591089171374766  L 4 29.348973969449677  C 3.7076355420250082 30.36935561489319  4.5354285843678 31.194672686122082  5.5558178279974895 31  L 29.313702626072402 31  C 30.333731445738934 31.19416500499197  31.160963527481655 30.3689958246019  31 29.348973969449677  L 31 5.591089171374785  C 31.164009275772063 4.568903335166118  30.335887828088353 3.7403688505385078  29.313702626072402 4  Z " fill-rule="nonzero" fill="#ffffff" stroke="none" transform="matrix(1 0 0 1 148 591 )" />
  </g>
</svg>