<?xml version="1.0" encoding="utf-8"?>
<svg version="1.1" xmlns:xlink="http://www.w3.org/1999/xlink" width="22px" height="29px" xmlns="http://www.w3.org/2000/svg">
  <g transform="matrix(1 0 0 1 -58 -595 )">
    <path d="M 21.880760000000002 27.7306923076923  C 21.880760000000002 28.25627196569667  21.4605702834112 28.682338461538464  20.942239999999995 28.682338461538464  C 20.423909716588803 28.682338461538464  20.00372 28.25627196569667  20 27.730692307692312  L 20 13.277984615384614  C 20.00372 13.277984615384614  20.00372 13.277984615384614  20.00372 13.277984615384614  C 20.00372 12.752404957380255  20.423909716588803 12.326338461538464  20.94224 12.326338461538464  C 21.4605702834112 12.326338461538464  21.880760000000002 12.752404957380255  21.880760000000002 13.277984615384614  L 21.880760000000002 27.7306923076923  Z M 7.860600000000002 16.704446153846156  C 7.6254045182581205 16.704685256506718  7.399792297271338 16.60996742799282  7.233600000000001 16.441215384615386  L 0.8307199999999983 9.94833846153846  C 0.6644018359798036 9.779736738071287  0.5709617344114848 9.551038177267086  0.5709617344114848 9.312569230769228  C 0.5709617344114848 9.07410028427137  0.6644018359798036 8.845401723467166  0.8307199999999983 8.676799999999998  L 8.875239999999996 0.519769230769228  C 9.041516182453826 0.35112493858092053  9.267060280350389 0.2563779824452088  9.502239999999997 0.2563779824452088  C 9.737419719649605 0.2563779824452088  9.962963817546168 0.3511249385809186  10.129239999999998 0.519769230769228  L 16.206959999999995 6.682492307692306  C 16.37325073912939 6.851108791424907  16.466671903607924 7.0798018203272255  16.466671903607924 7.318261538461538  C 16.466671903607924 7.814828195588337  16.069677461856088 8.21737500715489  15.579959999999996 8.21737500715489  C 15.34478938142616 8.21737500715489  15.119250739129388 8.122647252963368  14.95296 7.954030769230769  L 9.501799999999998 2.427076923076925  L 2.7112799999999986 9.31256923076923  L 8.4876 15.169676923076919  C 8.653918172664994 15.338278647707352  8.747358279720475 15.566977214652777  8.747358279720475 15.805446168172148  C 8.747358279720475 16.301950158270028  8.350413938920454 16.704446168172147  7.860758279720473 16.704446168172147  Z " fill-rule="nonzero" fill="#4e74fe" stroke="none" transform="matrix(1 0 0 1 58 595 )" />
  </g>
</svg>