<?xml version="1.0" encoding="utf-8"?>
<svg version="1.1" xmlns:xlink="http://www.w3.org/1999/xlink" width="39px" height="39px" xmlns="http://www.w3.org/2000/svg">
  <g transform="matrix(1 0 0 1 -48 -585 )">
    <path d="M 22.389120000000002 38.250754285714294  L 22.389120000000002 36.44026285714285  C 21.529078645892174 36.570536282960504  20.66045759598847 36.63594359700985  19.790605714285714 36.635931428571425  C 10.254994285714286 36.635931428571425  2.4982285714285726 28.878719999999998  2.4982285714285726 19.343554285714287  C 2.4982285714285726 9.808834285714285  10.255440000000002 2.0511771428571426  19.790605714285714 2.0511771428571426  C 29.32577142857143 2.0511771428571426  37.08298285714286 9.80838857142857  37.08298285714286 19.343554285714287  C 37.08298285714286 19.7028  37.06827428571428 20.05892571428571  37.046434285714284 20.412822857142856  L 38.84756571428572 20.412822857142856  C 38.867177142857145 20.058479999999996  38.87921142857143 19.702354285714286  38.87921142857143 19.343554285714287  C 38.87921142857143 8.818011428571428  30.31570285714286 0.2549485714285711  19.790160000000004 0.2549485714285711  C 9.264617142857146 0.2549485714285711  0.7015542857142861 8.81801142857143  0.7015542857142861 19.343108571428573  C 0.7015542857142861 29.868205714285715  9.265062857142858 38.432159999999996  19.790605714285714 38.432159999999996  C 20.65989025161558 38.430732125854014  21.52806909739164 38.37012341397908  22.389120000000002 38.250754285714294  Z " fill-rule="nonzero" fill="#4e74fe" stroke="none" transform="matrix(1 0 0 1 48 585 )" />
  </g>
</svg>