<?xml version="1.0" encoding="utf-8"?>
<svg version="1.1" xmlns:xlink="http://www.w3.org/1999/xlink" width="40px" height="40px" xmlns="http://www.w3.org/2000/svg">
  <g transform="matrix(1 0 0 1 -173 -585 )">
    <path d="M 19.92 28.695000000000004  C 18.895 28.650000000000006  17.839999999999996 28.430000000000007  16.744999999999997 27.985000000000003  C 15.534999999999998 27.490000000000006  14.450000000000001 26.795000000000005  13.495 25.9  L 13.289999999999997 25.9  L 13.289999999999997 29.535  C 14.264999999999999 30.015000000000004  15.309999999999997 30.415000000000006  16.419999999999998 30.745000000000005  C 17.395 31.035000000000004  18.585 31.170000000000005  19.925 31.205000000000005  L 19.925 32.50500000000001  L 22.425 32.50500000000001  L 22.425 31.070000000000007  C 22.914999999999996 30.985  23.375 30.875000000000004  23.775 30.72500000000001  C 24.660000000000004 30.38500000000001  25.45 29.895000000000003  26.155 29.260000000000005  C 26.78 28.68500000000001  27.265 27.980000000000004  27.615000000000002 27.150000000000006  C 27.96 26.320000000000007  28.135000000000005 25.480000000000004  28.135000000000005 24.630000000000006  C 28.135000000000005 23.275000000000006  27.790000000000003 22.130000000000006  27.095000000000002 21.200000000000006  C 26.400000000000006 20.270000000000007  25.305000000000007 19.580000000000005  23.800000000000008 19.120000000000005  C 23.415000000000003 19.005000000000003  22.945000000000007 18.880000000000003  22.430000000000007 18.750000000000007  L 22.430000000000007 11.280000000000001  C 23.105000000000008 11.395000000000001  23.765000000000008 11.565000000000001  24.400000000000006 11.845  C 25.485000000000007 12.320000000000002  26.370000000000005 12.875000000000004  27.065 13.510000000000002  L 27.285000000000004 13.510000000000002  L 27.285000000000004 10.040000000000004  C 26.355 9.590000000000003  25.35 9.245000000000005  24.26 9.000000000000002  C 23.670000000000005 8.870000000000001  23.055000000000003 8.780000000000005  22.430000000000003 8.720000000000002  L 22.430000000000003 7.5  L 19.93 7.5  L 19.93 8.690000000000001  C 18.185000000000002 8.834999999999999  16.705000000000002 9.395000000000003  15.525 10.420000000000002  C 14.14 11.620000000000001  13.45 13.100000000000003  13.45 14.870000000000001  C 13.45 15.72  13.575 16.470000000000002  13.825000000000001 17.12  C 14.075 17.770000000000003  14.424999999999999 18.335  14.875 18.810000000000002  C 15.334999999999999 19.300000000000004  15.86 19.695000000000004  16.455000000000002 19.995000000000005  C 17.05 20.299999999999997  17.725 20.545000000000005  18.474999999999998 20.745000000000005  C 19.025000000000002 20.885  19.494999999999997 21.000000000000007  19.92 21.105000000000004  L 19.92 28.695000000000004  Z M 22.41999999999999 28.455  L 22.42 21.740000000000002  C 23.355 22.005  24.034999999999997 22.405  24.465 22.955000000000002  C 24.895 23.5  25.109999999999996 24.21  25.109999999999996 25.08  C 25.109999999999996 26.175  24.699999999999992 27.055000000000003  23.879999999999995 27.725  C 23.484999999999996 28.045  22.99499999999999 28.285  22.41999999999999 28.455  Z M 19.924999999999997 18.130000000000003  C 19.719999999999995 18.075000000000003  19.505 18.020000000000003  19.325000000000003 17.975  C 18.395 17.720000000000002  17.69 17.32  17.2 16.775000000000002  C 16.71 16.230000000000004  16.47 15.490000000000004  16.47 14.565000000000003  C 16.47 13.540000000000003  16.884999999999998 12.71  17.715 12.080000000000004  C 18.305 11.630000000000004  19.074999999999996 11.400000000000004  19.924999999999997 11.270000000000005  L 19.924999999999997 18.130000000000003  Z M 40 20  C 40 8.955  31.044999999999998 0  20 0  C 12.465000000000002 0  5.91 4.17  2.5 10.325  L 2.5 6.25  C 2.5 5.56  1.9400000000000006 5  1.25 5  C 0.5599999999999995 5  0 5.56  0 6.25  L 0 13.75  C 0 13.899999999999999  0 15  1.25 15  L 11.25 15  C 11.94 15  10 14.44  10 13.75  C 10 13.06  11.94 12.5  11.25 12.5  L 4.2 12.5  C 7.01 6.59  13.019999999999998 2.5  20 2.5  C 29.665 2.5  37.5 10.334999999999999  37.5 20  C 37.5 29.665  29.665 37.5  20 37.5  C 11.185 37.5  3.915000000000001 30.975  2.7 22.5  L 0.17500000000000002 22.5  C 1.4049999999999996 32.365  9.805000000000001 40  20 40  C 31.044999999999998 40  40 31.044999999999998  40 20  Z " fill-rule="nonzero" fill="#4e74fe" stroke="none" transform="matrix(1 0 0 1 173 585 )" />
  </g>
</svg>