<?xml version="1.0" encoding="utf-8"?>
<svg version="1.1" xmlns:xlink="http://www.w3.org/1999/xlink" width="32px" height="40px" xmlns="http://www.w3.org/2000/svg">
  <g transform="matrix(1 0 0 1 -301 -585 )">
    <path d="M 18.429257142857132 38.582857142857144  C 18.429257142857132 39.03796825396826  18.092799999999986 39.39555555555556  17.69782857142857 39.39555555555556  C 8.013714285714286 39.39555555555556  0.14354285714285556 30.650920634920634  0.14354285714285556 19.890793650793654  C 0.14354285714285556 9.130666666666672  8.013714285714286 0.3860317460317486  17.69782857142857 0.3860317460317486  C 23.212799999999998 0.3860317460317486  28.288914285714288 3.1817142857142873  31.63885714285714 8.041650793650795  C 31.88754285714285 8.3992380952381  31.829028571428573 8.903111111111114  31.507199999999987 9.17942857142857  C 31.379581191862 9.290321101643578  31.222231727235794 9.350566757892025  31.06022168332146 9.350566757892025  C 30.83384718457742 9.350566757892025  30.620444060421978 9.23317211907783  30.483199999999993 9.03314285714286  C 27.41119999999999 4.579555555555556  22.74468571428571 2.0114285714285756  17.697828571428563 2.0114285714285756  C 8.818285714285704 2.0114285714285756  1.6063999999999916 10.024634920634927  1.6063999999999916 19.890793650793654  C 1.6063999999999916 29.756952380952377  8.818285714285707 37.77015873015873  17.697828571428563 37.77015873015873  C 18.107428571428564 37.77015873015873  18.429257142857132 38.12774603174603  18.429257142857132 38.582857142857144  Z " fill-rule="nonzero" fill="#4e74fe" stroke="none" transform="matrix(1 0 0 1 301 585 )" />
  </g>
</svg>