<?xml version="1.0" encoding="utf-8"?>
<svg version="1.1" xmlns:xlink="http://www.w3.org/1999/xlink" width="28px" height="19px" xmlns="http://www.w3.org/2000/svg">
  <g transform="matrix(1 0 0 1 -313 -599 )">
    <path d="M 2.596571428571431 6.393120000000004  C 2.201600000000001 6.652533333333337  2.377142857142859 7.301066666666671  2.8306285714285724 7.301066666666671  L 27.099428571428575 7.301066666666671  C 27.34811428571429 7.301066666666671  27.552914285714287 7.074080000000002  27.552914285714287 6.798453333333338  L 27.552914285714287 6.020213333333334  C 27.552914285714287 5.24197333333333  26.982400000000002 4.609653333333336  26.280228571428577 4.609653333333336  L 13.407085714285715 4.609653333333336  C 13.158400000000004 4.609653333333336  12.953600000000002 4.382666666666667  12.953600000000002 4.107040000000005  L 12.924342857142863 0.9778666666666692  C 12.924342857142863 0.5725333333333356  12.51474285714286 0.34554666666667133  12.222171428571432 0.5563200000000039  L 2.596571428571431 6.393120000000004  Z M 25.12457142857142 12.667679999999997  C 25.51954285714285 12.408266666666664  25.343999999999994 11.759733333333331  24.89051428571429 11.759733333333331  L 0.6217142857142862 11.759733333333331  C 0.37302857142857093 11.759733333333331  0.1682285714285732 11.98672  0.1682285714285732 12.262346666666664  L 0.1682285714285732 13.040586666666668  C 0.1682285714285732 13.818826666666673  0.738742857142857 14.451146666666666  1.4409142857142894 14.451146666666666  L 14.314057142857141 14.451146666666666  C 14.562742857142853 14.451146666666666  14.767542857142855 14.678133333333335  14.767542857142855 14.953759999999997  L 14.796799999999994 18.08293333333333  C 14.796799999999994 18.48826666666666  15.206399999999997 18.71525333333333  15.498971428571426 18.504479999999994  L 25.12457142857142 12.667679999999997  Z " fill-rule="nonzero" fill="#4e74fe" stroke="none" transform="matrix(1 0 0 1 313 599 )" />
  </g>
</svg>