<?xml version="1.0" encoding="utf-8"?>
<svg version="1.1" xmlns:xlink="http://www.w3.org/1999/xlink" width="45px" height="45px" xmlns="http://www.w3.org/2000/svg">
  <g transform="matrix(1 0 0 1 -593 -234 )">
    <path d="M 615.5 234  C 628.1 234  638 243.9  638 256.5  C 638 269.1  628.1 279  615.5 279  C 602.9 279  593 269.1  593 256.5  C 593 243.9  602.9 234  615.5 234  Z " fill-rule="nonzero" fill="#ffffff" stroke="none" />
    <path d="M 615.5 234.5  C 627.82 234.5  637.5 244.18  637.5 256.5  C 637.5 268.82  627.82 278.5  615.5 278.5  C 603.18 278.5  593.5 268.82  593.5 256.5  C 593.5 244.18  603.18 234.5  615.5 234.5  Z " stroke-width="1" stroke="#797979" fill="none" />
  </g>
</svg>