<?xml version="1.0" encoding="utf-8"?>
<svg version="1.1" xmlns:xlink="http://www.w3.org/1999/xlink" width="56px" height="56px" xmlns="http://www.w3.org/2000/svg">
  <g transform="matrix(1 0 0 1 -575 -148 )">
    <path d="M 55.49999998046875 28  C 55.49999998046875 43.1875  43.1875 55.49999998046875  28 55.49999998046875  C 12.8125 55.49999998046875  0.50000001953125 43.1875  0.50000001953125 28  C 0.50000001953125 12.812499999999996  12.8125 0.50000001953125  28 0.50000001953125  C 43.1875 0.50000001953125  55.49999998046875 12.812499999999998  55.49999998046875 28  Z M 15.792500019531241 23.497499980468746  L 15.790000000000001 23.49500001953125  C 15.170000019531251 24.490000000000002  14.589999999999996 25.575000039062502  14.062499980468754 26.755000000000003  C 13.142165027027797 28.84500696180679  12.056205262311446 30.858087104187785  10.814999980468748 32.77499998046874  C 10.434506611465421 33.34534666957002  10.396145809464196 34.07803828898573  10.71500001953125 34.68500001953125  C 14.07407580941926 41.138697563902596  20.73946654274894 45.192834793419586  28.014999999999993 45.20750001953125  C 33.43639376327051 45.20796957722137  38.611115185019365 42.94193286417186  42.287499999999994 38.9575  C 42.743331298637436 38.457612871760915  42.90028838976477 37.753684106864  42.699999999999996 37.10750001953125  C 41.97999999999999 34.762500039062495  41.11749999999999 32.60750001953125  40.49249998046874 30.614999980468745  C 40.99499998046875 30.522499960937502  41.47749999999999 30.3049999609375  41.887499980468746 29.964999999999993  L 43.552499980468745 28.589999980468743  C 44.83937967306415 27.532517494509452  45.03247618033524 25.635037545352407  43.98500001953125 24.339999999999996  L 43.94750001953125 24.290000019531245  L 43.88999998046875 24.222500019531246  C 43.12154212352724 23.330182176375466  41.909800557053025 22.95703962269361  40.7725 23.262500019531245  C 41.93750001953125 21.987500019531247  43.74749998046875 21.399999999999995  44.957499999999996 21.137499999999992  C 45.216511118983966 21.07582257865215  45.39930161263906 20.84439377404416  45.39930161263906 20.578140390851665  C 45.39930161263906 20.376107433479085  45.29327062202316 20.188897047992505  45.11999998046875 20.084999980468744  C 42.674999980468755 18.629999980468746  39.764999980468744 19.202499999999997  39.764999980468744 19.202499999999997  C 39.764999980468744 19.202499999999997  38.2924999609375 16.22750001953125  33.027500019531246 14.744999980468744  C 30.672500019531242 14.079999999999995  27.577500039062496 14.282499999999995  24.452499999999993 15.669999999999996  C 24.27074722502393 15.668452893793214  24.088990742783757 15.672621614085855  23.907500019531245 15.682499980468743  C 22.413814406118004 15.281515510963889  21.057152465452013 14.482208334101719  19.982499999999995 13.370000019531245  L 19.739999980468745 13.122500019531246  C 18.031042113367132 11.353817321948949  15.218671425727251 11.284788411981818  13.424999980468744 12.967499980468748  C 12.545328553260495 13.821928131929385  12.048955982771679 14.996034742173094  12.048955982771679 16.222358225539143  C 12.048955982771679 17.4083133019586  12.51327450500448 18.547135277744218  13.342499980468743 19.394999980468747  L 13.642499980468742 19.697499999999994  C 14.667499960937494 20.752499980468745  15.404999980468741 22.064999980468745  15.792500019531241 23.497499980468746  Z " fill-rule="nonzero" fill="#ff7c00" stroke="none" transform="matrix(1 0 0 1 575 148 )" />
  </g>
</svg>