<?xml version="1.0" encoding="utf-8"?>
<svg version="1.1" xmlns:xlink="http://www.w3.org/1999/xlink" width="31px" height="20px" xmlns="http://www.w3.org/2000/svg">
  <g transform="matrix(1 0 0 1 -588 -160 )">
    <path d="M 18.715000019531253 12.314999980468741  C 18.715000019531253 14.089999960937494  18.095000039062505 15.719999980468746  17.065000019531247 16.9975  C 19.742661203211398 18.14567928239118  22.83195548057514 17.755452635885593  25.140000000000008 15.977500000000003  C 24.988744642547772 15.31698124232587  25.223982671255563 14.627724130071783  25.747500000000002 14.197499980468749  L 27.412500000000016 12.822500019531255  C 27.737914891478262 12.554491322361091  28.14637656123046 12.407940983272177  28.56794922798513 12.407940983272177  C 29.113289742366938 12.407940983272177  29.629810389551153 12.652814705433332  29.97499998046876 13.075  L 30.012499980468768 13.124999980468754  C 30.628683254722716 13.887375201840126  30.513646994871735 15.004232271748826  29.75500001953126 15.625  L 28.090000019531253 17.000000019531253  C 27.64581836565528 17.36676249995052  27.054070944681698 17.501250532385853  26.494999980468755 17.36249998046875  C 24.718394482253046 18.78835303720622  22.508021061445085 19.564541640441455  20.230000019531253 19.5625  L 19.864999980468752 19.5625  C 18.359353371081994 19.50711809652728  16.885813070150967 19.111381916750723  15.555000000000009 18.404999980468745  C 14.33902952543712 19.257210783744007  12.889872299266198 19.713782613287364  11.404999980468755 19.71249999999999  C 7.365000000000009 19.71249999999999  4.092499980468755 16.400000019531245  4.092499980468755 12.312500019531242  C 4.092499980468755 12.097500039062492  4.0999999804687555 11.882499999999993  4.117500000000007 11.669999980468742  C 3.7259673545100647 9.843541750203784  2.8304429524464076 8.163350893207937  1.532500019531259 6.819999999999997  L 1.2325000195312583 6.52  C 0.6293700114089056 5.907356942769251  0.29132351208151874 5.082123558338594  0.29132351208151874 4.222415862507791  C 0.29132351208151874 3.3406923370850095  0.6468547775792732 2.496216664946889  1.2775000195312565 1.8800000195312467  C 2.5776056007276935 0.658138398858096  4.619643454850674 0.7128158977352488  5.852500019531256 2.0024999804687447  L 6.087499980468756 2.240000019531248  C 7.380000000000006 3.5750000195312452  9.012499980468757 4.507500039062496  10.795000019531258 4.942499980468746  C 10.995000000000008 4.924999960937495  11.197500000000005 4.917499960937494  11.402500019531256 4.917500019531246  C 15.440000039062504 4.922499999999996  18.710000039062507 8.232500019531248  18.715000019531253 12.314999980468741  Z " fill-rule="nonzero" fill="#ff7c00" stroke="none" transform="matrix(1 0 0 1 588 160 )" />
  </g>
</svg>