<?xml version="1.0" encoding="utf-8"?>
<svg version="1.1" xmlns:xlink="http://www.w3.org/1999/xlink" width="40px" height="40px" xmlns="http://www.w3.org/2000/svg">
  <g transform="matrix(1 0 0 1 -10 -39 )">
    <path d="M 39.34710849453322 20  C 39.34710849453322 9.293214465937762  30.66593103448276 0.6120370058873003  19.959145500420522 0.6120370058872991  C 9.252359966358284 0.6120370058872991  0.5711825063078229 9.293214465937762  0.5711825063078229 20  C 0.5711825063078229 30.70678553406224  9.252359966358286 39.3879629941127  19.959145500420522 39.3879629941127  C 30.66593103448276 39.3879629941127  39.34710849453322 30.70678553406224  39.34710849453322 20  Z M 26.78007064760303 23.761843566021867  C 26.78007064760303 25.456740117746005  26.139317073170734 26.593560975609762  24.940487804878053 27.503017661900756  C 23.927683767872164 28.247118587047943  22.687515559293523 28.82586375105131  21.219983179142137 28.92921110176619  L 21.219983179142137 31.326869638351557  L 18.67763835155593 31.326869638351557  L 18.67763835155593 28.88787216148023  C 17.106758620689657 28.70184693019344  15.990607232968886 28.247118587047943  15.039811606391929 27.482348191757776  C 13.778973927670318 26.49021362489487  13.406923465096723 25.415401177460044  13.158889823380997 24.07188561816653  L 17.00341126997477 23.121089991589567  C 17.00341126997477 24.38192767031118  18.30558788898234 25.82879058031959  20.269187552565185 25.82879058031959  C 21.426677880571916 25.82879058031959  22.81153238015139 25.270714886459203  22.81153238015139 23.741174095878886  C 22.81153238015139 22.50100588730025  21.488686291000842 21.61221867115222  20.083162321278387 21.302176619007565  C 18.59496047098402 20.9921345668629  15.639226240538267 19.979330529857016  14.812447434819177 19.090543313708995  C 13.985668629100083 18.201756097560967  13.75830445752733 16.920248948696376  13.75830445752733 15.452716568544991  C 13.75830445752733 14.191878889823377  14.316380151387717 12.910371740958785  15.246506307821694 12.124931875525647  C 16.13529352396972 11.380830950378463  17.18943650126156 10.88476366694701  18.677638351555927 10.698738435660216  L 18.677638351555927 8.652460891505463  L 21.219983179142137 8.652460891505463  L 21.219983179142137 10.69873843566022  C 22.625507148864592 10.843424726661059  23.782997476871323 11.29815306980656  24.671784693019344 12.042253994953743  C 25.767266610597144 12.993049621530698  26.346011774600505 14.212548359966357  26.346011774600505 14.935979814970564  L 22.50149032800673 15.845436501261565  C 22.50149032800673 14.894640874684608  21.075296888141295 13.716481076534903  20.103831791421364 13.716481076534903  C 18.842994112699753 13.716481076534903  17.85085954583684 14.06786206896552  17.85085954583684 15.63874179983179  C 17.85085954583684 16.775562657695545  18.718977291841888 17.147613120269135  20.20717914213625 17.623010933557612  C 22.708185029436507 18.429120269133726  24.609776282590413 19.462593776282592  25.47789402859546 20.351380992430613  C 26.346011774600505 21.260837678721614  26.78007064760303 22.37698906644239  26.78007064760303 23.761843566021867  Z " fill-rule="nonzero" fill="#feb900" stroke="none" transform="matrix(1 0 0 1 10 39 )" />
  </g>
</svg>