<?xml version="1.0" encoding="utf-8"?>
<svg version="1.1" xmlns:xlink="http://www.w3.org/1999/xlink" width="25px" height="26px" xmlns="http://www.w3.org/2000/svg">
  <g transform="matrix(1 0 0 1 -865 -267 )">
    <path d="M 5.989583343505859 9.25  L 5.989583343505859 8  L 17.70833334350586 8  L 17.70833334350586 9.25  L 5.989583343505859 9.25  Z M 5.989583343505859 13  L 5.989583343505859 11.749999990234375  L 15.104166656494142 11.749999990234375  L 15.104166656494142 13  L 5.989583343505859 13  Z M 5.989583343505859 16.75  L 5.989583343505859 15.499999990234373  L 15.104166656494142 15.499999990234373  L 15.104166656494142 16.75  L 5.989583343505859 16.75  Z M 5.989583343505859 3.001249990234375  L 5.989583343505859 1.7487499902343768  C 5.989583343505859 1.058749990234375  6.574218750000001 0.4999999902343748  7.285156250000001 1  L 17.71484375 1  C 18.4296875 0.4999999902343748  19.01041665649414 1.061250009765625  19.01041665649414 1.748749990234375  L 19.01041665649414 3.001249990234375  C 19.01006562900922 3.6888261418443187  18.431061735260226 4.246904431915695  17.71484375 4.249999990234375  L 7.285156250000001 4.249999990234375  C 6.570312500000002 4.249999990234375  5.989583343505859 3.68875  5.989583343505859 3.001249990234375  Z M 2.0833292744636687 25.500000009771725  C 2.0833306304054906 25.500000009771725  2.0833319875640384 25.50000000976969  2.0833333435058594 25  L 22.916666656494137 25  C 23.63932290649414 25.500000009765625  24.218749999999996 24.93875001953125  24 24.246874990234375  L 24 3.003124990234375  C 24.21875 2.3093749902343754  23.63411459350586 1.75  22.91276040649414 1.75  L 20.98111978149414 1.75  L 20.98111978149414 3.0000000097656248  L 22.91276040649414 3.0000000097656248  C 22.91666665649414 3.0031250195312493  22.917968749999996 24.25  22.91666665649414 24  L 2 24  L 2 3.003124990234375  C 2.0859375000000004 3.001249990234375  4.08203125 3.0000000097656248  4.08203125 3.0000000097656248  L 4.08203125 1.75  L 2.0859374999999996 1.7499999999999996  C 1.365378328024657 1.7499999999999902  0.7812498375695198 2.310763350836922  0.7812498375695198 3.0024999999999906  C 0.7812498375695198 3.0027083300880895  0.7812498917130146 3.002916660172212  1 3.003124990234375  L 1 24.246874990234375  C 0.7812472873062665 24.24791665812371  0.7812459309578097 24.248958328861516  0.7812459309578097 24.2500000000061  C 0.7812459309578097 24.940355942687997  1.3642085008366924 25.500000009771725  2.0833292744636687 25.500000009771725  Z M 7.29166665649414 2  L 7.29166665649414 3  L 17.70833334350586 3  L 17.70833334350586 2  L 7.29166665649414 2  Z " fill-rule="nonzero" fill="#ffffff" stroke="none" transform="matrix(1 0 0 1 865 267 )" />
  </g>
</svg>