<?xml version="1.0" encoding="utf-8"?>
<svg version="1.1" xmlns:xlink="http://www.w3.org/1999/xlink" width="11px" height="19px" xmlns="http://www.w3.org/2000/svg">
  <g transform="matrix(1 0 0 1 -349 -51 )">
    <path d="M 10.428973958333335 9.479725435697116  C 10.428973958333335 9.281754056490385  10.335108723958333 9.105577298677884  10.189638020833335 8.99176570012019  L 1.453747395833334 0.2849000901442306  C 1.3411048177083347 0.17265136718750018  1.184655598958334 0.10405611478365381  1.0125657552083331 0.10405611478365381  C 0.6683860677083342 0.10405611478365381  0.3899055989583339 0.3815628756009616  0.3899055989583339 0.7245391376201924  C 0.3899055989583339 0.8960272686298079  0.45874153645833443 1.051908052884615  0.572952473958334 1.164156775841346  L 8.920835286458333 9.4844140625  L 0.5729524739583328 17.803087064302886  C 0.4603098958333322 17.915335787259618  0.38990559895833254 18.07123798076923  0.38990559895833254 18.242726111778847  C 0.38990559895833254 18.585702373798075  0.668386067708333 18.863209134615385  1.0125657552083331 18.863209134615385  C 1.1846555989583327 18.863209134615385  1.3395364583333331 18.793051006610575  1.453747395833334 18.680802283653843  L 10.269388020833333 9.895985576923076  L 10.266251302083331 9.895985576923076  C 10.367936848958331 9.786841195913462  10.428952473958335 9.640316256009614  10.428952473958335 9.479725435697116  Z " fill-rule="nonzero" fill="#ffffff" stroke="none" transform="matrix(1 0 0 1 349 51 )" />
  </g>
</svg>